<svg t="1682243337582" class="icon" viewBox="0 0 1024 1024" version="1.1" xmlns="http://www.w3.org/2000/svg" p-id="5442" width="16" height="16"><path d="M512 32C246.4 32 32 246.4 32 512s214.4 480 480 480 480-214.4 480-480S777.6 32 512 32z m160 566.4c19.2 19.2 19.2 51.2 0 73.6-19.2 19.2-51.2 19.2-73.6 0L512 585.6 425.6 672c-19.2 19.2-51.2 19.2-73.6 0-19.2-19.2-19.2-51.2 0-73.6l86.4-86.4-86.4-86.4c-19.2-19.2-19.2-51.2 0-73.6 19.2-19.2 51.2-19.2 73.6 0l86.4 86.4 86.4-86.4c19.2-19.2 51.2-19.2 73.6 0 19.2 19.2 19.2 51.2 0 73.6L585.6 512l86.4 86.4z" p-id="5443" fill="#ea4a5a"></path></svg>